<?xml version="1.0" standalone="no"?>
<!DOCTYPE svg PUBLIC "-//W3C//DTD SVG 20010904//EN"
 "http://www.w3.org/TR/2001/REC-SVG-20010904/DTD/svg10.dtd">
<svg version="1.0" xmlns="http://www.w3.org/2000/svg"
 width="1640.000000pt" height="924.000000pt" viewBox="0 0 1640.000000 924.000000"
 preserveAspectRatio="xMidYMid meet">
<metadata>
Created by potrace 1.16, written by Peter Selinger 2001-2019
</metadata>
<g transform="translate(0.000000,924.000000) scale(0.100000,-0.100000)"
fill="#000000" stroke="none">
<path d="M0 8794 l0 -446 58 7 c31 4 80 15 107 24 88 31 91 32 39 6 -28 -13
-85 -30 -127 -37 l-77 -12 0 -72 c0 -67 2 -73 23 -77 l22 -4 -22 -2 c-22 -1
-23 -6 -23 -70 0 -58 3 -70 17 -74 17 -4 17 -5 1 -6 -16 -1 -18 -12 -18 -77
l0 -77 82 8 c361 31 683 257 838 588 68 144 85 228 85 417 0 141 -3 178 -24
258 l-23 92 -82 0 -82 0 22 -67 c125 -373 -16 -779 -346 -998 -110 -73 -299
-137 -393 -134 -20 1 -9 5 27 10 319 47 582 253 691 543 60 161 71 364 26 522
-36 127 -33 124 -119 124 -67 0 -73 -2 -66 -17 4 -10 21 -56 37 -103 26 -74
31 -101 33 -205 l2 -120 -7 115 c-8 122 -18 167 -58 268 l-25 62 -89 0 c-49 0
-89 -3 -89 -6 0 -3 9 -19 20 -34 26 -37 70 -131 69 -150 0 -8 -8 7 -19 34 -10
26 -34 72 -52 102 l-32 54 -213 0 -213 0 0 -446z"/>
<path d="M974 9223 c88 -289 61 -579 -78 -827 -122 -217 -333 -392 -573 -475
-73 -24 -217 -51 -279 -51 l-44 0 0 -71 0 -72 93 6 c246 14 517 134 707 313
305 289 435 726 334 1128 l-16 66 -75 0 c-66 0 -74 -2 -69 -17z"/>
<path d="M1152 9163 c28 -115 35 -341 14 -462 -93 -532 -515 -924 -1058 -983
l-108 -11 0 -65 0 -65 84 6 c230 18 447 91 630 211 312 205 518 520 582 889
21 119 15 378 -10 485 l-18 72 -67 0 -68 0 19 -77z"/>
<path d="M1290 9233 c0 -4 7 -42 15 -83 52 -265 16 -562 -101 -819 -84 -183
-267 -403 -434 -520 -204 -144 -486 -241 -695 -241 l-75 0 0 -60 0 -60 43 0
c77 1 251 28 342 55 265 77 447 185 640 379 215 216 349 480 401 787 19 116
15 400 -8 504 l-13 60 -57 3 c-32 2 -58 -1 -58 -5z"/>
<path d="M1424 9223 c36 -120 43 -447 13 -596 -61 -300 -192 -544 -411 -762
-172 -170 -345 -279 -565 -355 -104 -35 -278 -70 -351 -70 -26 0 -62 -3 -79
-6 -31 -6 -31 -7 -31 -66 l0 -60 98 7 c739 52 1338 595 1463 1326 18 105 20
150 16 294 -3 94 -11 200 -18 238 l-12 67 -64 0 c-57 0 -64 -2 -59 -17z"/>
<path d="M1574 9193 c24 -169 28 -231 22 -363 -3 -80 -14 -188 -25 -242 -115
-573 -531 -1040 -1085 -1217 -123 -40 -303 -71 -407 -71 l-79 0 0 -3650 0
-3650 1046 0 1046 0 -7 27 c-53 206 -70 466 -41 661 51 348 207 652 465 910
221 221 507 371 821 433 137 27 428 29 567 5 334 -59 628 -211 858 -445 44
-44 84 -81 88 -81 9 0 113 60 1677 963 619 357 1258 726 1420 820 162 94 297
172 299 174 3 2 -5 10 -17 19 l-22 15 0 1267 0 1267 63 34 c34 19 233 133 442
254 209 120 459 264 555 320 96 55 243 139 325 187 83 48 263 151 400 230 138
78 283 162 323 186 40 24 78 44 85 44 7 0 64 -31 127 -68 63 -37 227 -133 364
-213 138 -79 251 -152 254 -161 2 -9 10 -14 17 -12 21 8 50 -12 52 -35 2 -26
-15 -26 -47 -1 -14 11 -30 20 -36 20 -6 0 -23 11 -37 24 -14 13 -28 21 -31 18
-3 -3 -23 6 -43 20 -33 22 -84 51 -273 156 -25 14 -62 36 -82 49 -21 12 -40
23 -42 23 -2 0 -51 27 -108 60 -56 33 -107 60 -113 60 -5 0 -61 -30 -125 -66
-250 -144 -589 -340 -860 -496 -157 -91 -391 -226 -520 -300 -129 -74 -280
-161 -335 -193 -55 -32 -145 -84 -200 -116 l-100 -58 -3 -1239 -2 -1239 25
-11 c22 -10 36 -5 135 53 61 36 113 65 116 65 3 0 355 -202 782 -449 1087
-627 1076 -621 1090 -621 27 0 1147 655 1180 690 49 53 41 69 -56 101 -46 15
-89 26 -96 23 -7 -3 -19 -16 -27 -30 -22 -42 -106 -107 -127 -98 -15 7 -14 8
5 11 12 2 40 29 64 60 49 66 46 80 -23 102 -60 18 -74 41 -47 75 12 15 19 32
16 40 -4 11 -157 66 -184 66 -6 0 -21 -16 -34 -36 -22 -36 -22 -37 -4 -50 25
-18 8 -18 -46 2 l-44 15 -47 -53 c-59 -67 -65 -86 -30 -94 38 -9 42 -13 35
-30 -5 -12 -7 -13 -17 -1 -6 8 -49 27 -95 42 l-84 27 -37 -44 c-42 -48 -67
-46 -31 3 12 17 20 36 17 44 -5 14 -92 50 -148 60 -34 6 -37 4 -79 -49 -24
-31 -44 -62 -44 -69 0 -6 29 -22 63 -34 62 -21 86 -33 65 -33 -6 0 -29 7 -52
15 l-42 15 -47 -51 c-77 -84 -78 -90 -7 -108 25 -6 45 -13 45 -15 0 -5 -30
-41 -77 -95 -42 -47 -44 -19 -2 32 21 26 28 43 24 57 -3 11 -10 20 -15 20 -5
0 -21 5 -35 10 l-26 10 45 65 c45 65 49 88 18 100 -15 6 -15 8 -2 18 8 7 34
35 57 63 53 63 48 72 -61 108 l-78 25 -49 -52 c-55 -59 -78 -57 -30 4 18 22
30 46 28 53 -7 18 -161 69 -186 61 -12 -4 -21 0 -25 11 -10 27 0 28 66 5 l63
-22 48 53 c26 29 46 60 45 68 -2 9 -36 26 -88 43 l-85 27 -40 -45 c-22 -25
-43 -45 -47 -45 -15 0 -8 18 17 48 35 42 32 57 -21 77 -63 24 -49 28 27 8 61
-16 66 -16 92 1 49 33 36 51 -57 82 -90 29 -118 43 -101 50 7 2 9 32 7 73 -4
69 -4 70 19 64 35 -8 318 -96 714 -223 193 -62 460 -147 595 -190 135 -43 353
-112 484 -154 132 -42 244 -76 250 -76 6 0 72 36 146 79 l135 79 2 1059 c1
582 4 1069 5 1082 2 18 28 37 118 90 96 55 116 71 118 93 3 23 -6 31 -73 72
-42 25 -78 46 -80 46 -3 0 -27 14 -54 31 -33 20 -48 35 -44 45 3 7 0 14 -6 14
-6 0 -11 -4 -11 -10 0 -5 -15 -1 -32 10 -18 11 -44 25 -58 30 -14 6 -35 22
-48 36 -13 13 -27 22 -33 19 -14 -9 -62 33 -66 56 -3 17 1 19 19 13 32 -9 48
-24 48 -43 0 -13 2 -13 9 -2 7 11 14 10 37 -6 31 -21 138 -83 244 -141 36 -19
83 -47 105 -61 22 -14 52 -31 67 -38 17 -7 28 -21 30 -37 3 -25 13 -20 318
157 174 100 1030 594 1903 1097 l1587 915 0 533 0 532 -7416 0 -7417 0 7 -47z
m-444 -2383 l0 -350 85 0 85 0 0 -70 0 -70 -170 0 -170 0 0 420 0 420 85 0 85
0 0 -350z m700 270 l0 -80 -80 0 -80 0 0 -85 0 -85 80 0 80 0 0 -75 0 -75 -80
0 -80 0 0 -100 0 -100 85 0 85 0 0 -80 0 -80 -170 0 -170 0 0 420 0 420 165 0
165 0 0 -80z m564 48 c5 -32 76 -775 76 -797 0 -7 -26 -11 -75 -11 -84 0 -82
-2 -87 90 l-3 45 -51 3 -51 3 -7 -38 c-3 -21 -6 -53 -6 -70 l0 -33 -81 0 -80
0 6 53 c6 53 75 772 75 782 0 3 63 5 140 5 l139 0 5 -32z m634 -1 c37 -35 52
-92 52 -192 0 -84 -16 -134 -50 -158 l-23 -16 29 -24 29 -25 3 -196 3 -196
-80 0 -81 0 0 178 c0 97 -4 182 -8 189 -4 6 -20 15 -35 18 l-27 7 0 -196 0
-196 -85 0 -85 0 0 421 0 420 164 -3 165 -3 29 -28z m438 -4 c4 -21 22 -110
39 -198 l33 -160 1 198 1 197 80 0 80 0 0 -420 0 -420 -79 0 c-67 0 -80 3 -85
18 -3 9 -22 103 -43 207 l-38 190 -3 -207 -2 -208 -80 0 -80 0 0 420 0 420 85
0 84 0 7 -37z m-1000 -1138 c56 -16 86 -43 109 -97 12 -31 15 -86 15 -305 0
-156 -4 -284 -11 -306 -14 -50 -61 -103 -106 -118 -49 -16 -145 -14 -180 4
-35 19 -65 51 -89 97 -16 31 -19 65 -22 282 -4 272 4 339 45 388 54 65 140 85
239 55z m653 -10 c59 -30 83 -81 97 -202 l7 -63 -81 0 -80 0 -4 61 c-5 75 -35
101 -72 63 -14 -14 -16 -48 -14 -266 3 -245 4 -251 25 -265 19 -13 24 -12 42
6 18 18 21 33 21 106 0 78 -2 85 -20 85 -18 0 -20 7 -20 70 l0 70 100 0 100 0
0 -245 0 -245 -34 0 c-31 0 -36 4 -46 36 l-12 36 -32 -31 c-53 -51 -154 -58
-214 -14 -15 10 -36 37 -47 59 -18 36 -20 62 -23 316 -2 179 1 291 8 317 14
51 66 105 117 119 48 14 144 7 182 -13z m-1832 -11 c46 -33 75 -103 80 -197 7
-106 -15 -199 -57 -242 -27 -27 -38 -30 -105 -33 l-75 -4 0 -169 0 -169 -85 0
-85 0 0 421 0 420 149 -3 c132 -3 153 -5 178 -24z m641 -7 c37 -35 52 -92 52
-192 0 -84 -16 -134 -50 -158 l-23 -16 29 -24 29 -25 3 -196 3 -196 -80 0 -81
0 0 178 c0 97 -4 182 -8 189 -4 6 -20 15 -35 18 l-27 7 0 -196 0 -196 -85 0
-85 0 0 421 0 420 164 -3 165 -3 29 -28z m1860 0 c37 -35 52 -92 52 -192 0
-84 -16 -134 -50 -158 l-23 -16 29 -24 29 -25 3 -196 3 -196 -80 0 -81 0 0
178 c0 97 -4 182 -8 189 -4 6 -20 15 -35 18 l-27 7 0 -196 0 -196 -85 0 -85 0
0 421 0 420 164 -3 165 -3 29 -28z m602 27 c0 -14 70 -742 76 -786 l6 -48 -81
0 -81 0 0 48 c0 86 -5 93 -64 90 l-51 -3 -3 -67 -3 -68 -79 0 c-57 0 -80 4
-80 13 0 21 70 760 76 795 l5 32 139 0 c77 0 140 -3 140 -6z m571 -239 c18
-135 36 -245 39 -245 3 0 21 110 39 245 l34 245 128 0 129 0 0 -420 0 -420
-75 0 -75 0 -1 298 c0 163 -4 288 -8 277 -4 -11 -27 -145 -51 -297 l-44 -278
-72 0 c-71 0 -73 1 -78 28 -3 15 -26 146 -51 291 -24 145 -47 266 -50 269 -3
3 -5 -128 -5 -291 l0 -297 -75 0 -75 0 0 420 0 420 129 0 128 0 34 -245z
m-2814 -1137 c27 -25 29 -54 8 -85 -11 -16 -28 -23 -63 -25 -47 -3 -47 -3 -50
-40 -2 -21 -7 -38 -13 -38 -5 0 -9 46 -9 105 l0 105 52 0 c39 0 57 -5 75 -22z
m1987 6 c22 -21 20 -31 -8 -59 l-24 -24 29 -27 28 -27 7 27 c4 17 10 24 16 18
5 -5 5 -18 -1 -33 -7 -19 -4 -29 12 -46 16 -18 17 -23 6 -23 -8 0 -20 5 -26
11 -8 8 -17 8 -31 0 -30 -16 -78 -13 -96 5 -22 21 -20 57 3 78 18 16 18 19 3
46 -15 27 -15 30 2 49 23 25 58 27 80 5z m-1703 -63 c34 -35 37 -68 8 -105
-42 -53 -129 -23 -129 45 0 39 16 68 43 79 36 14 47 12 78 -19z m162 15 c15
-8 27 -11 27 -5 0 5 5 9 10 9 6 0 10 -34 10 -83 0 -92 -12 -120 -56 -131 -32
-9 -84 11 -84 31 0 12 3 12 22 -1 40 -28 79 -14 93 32 6 21 5 23 -13 13 -33
-17 -69 -13 -92 11 -35 38 -22 110 23 128 29 12 28 12 60 -4z m1290 2 c27 1
27 0 27 -62 0 -97 -8 -125 -42 -142 -31 -16 -71 -12 -95 8 -23 19 -3 27 26 10
40 -22 81 -5 81 35 0 21 -3 24 -12 15 -7 -7 -25 -12 -40 -12 -67 0 -95 97 -41
140 18 14 34 19 48 14 11 -3 32 -6 48 -6z m2570 0 c27 1 27 0 27 -62 0 -97 -8
-125 -42 -142 -31 -16 -71 -12 -95 8 -23 19 -3 27 26 10 40 -22 81 -5 81 35 0
21 -3 24 -12 15 -7 -7 -25 -12 -40 -12 -67 0 -95 97 -41 140 18 14 34 19 48
14 11 -3 32 -6 48 -6z m3289 -359 c67 -26 70 -29 74 -77 6 -67 13 -95 26 -105
8 -5 0 -6 -22 -2 -97 18 -100 18 -120 0 -26 -23 -27 -65 -2 -65 24 0 142 -40
142 -48 -1 -20 -14 -52 -21 -52 -5 0 -9 11 -9 24 0 21 -9 28 -77 51 -83 27
-138 54 -114 55 19 0 61 40 61 56 0 7 -20 22 -45 33 -40 17 -61 41 -37 41 5 0
15 19 21 43 23 75 37 80 123 46z"/>
<path d="M2240 6997 c0 -28 -18 -269 -25 -349 l-6 -58 42 0 42 0 -6 63 c-3 35
-11 131 -18 215 -7 84 -16 152 -21 152 -4 0 -8 -10 -8 -23z"/>
<path d="M2359 5833 c-11 -12 -15 -67 -17 -232 -4 -249 2 -294 38 -299 46 -7
50 13 50 274 0 207 -2 245 -16 258 -20 20 -38 20 -55 -1z"/>
<path d="M4241 5840 c-1 -8 -8 -96 -16 -195 -20 -247 -23 -225 26 -225 l42 0
-6 48 c-4 26 -11 112 -17 192 -10 126 -26 226 -29 180z"/>
<path d="M10150 3873 c-27 -35 -22 -55 15 -65 17 -4 56 -15 88 -24 l58 -18 26
26 c14 15 23 32 21 40 -4 10 -156 68 -180 68 -4 0 -16 -12 -28 -27z"/>
<path d="M10378 3799 c-17 -16 -28 -35 -26 -41 5 -15 175 -69 194 -61 19 7 45
50 39 65 -3 8 -44 25 -92 40 l-86 26 -29 -29z"/>
<path d="M10293 3741 c-21 -13 -93 -103 -93 -115 0 -11 143 -66 173 -66 20 0
99 97 95 117 -3 18 -159 75 -175 64z"/>
<path d="M10612 3727 c-38 -40 -29 -52 61 -81 45 -14 89 -26 98 -26 20 0 53
46 45 65 -4 12 -145 65 -172 65 -6 0 -20 -10 -32 -23z"/>
<path d="M10470 3621 c-25 -32 -45 -64 -45 -71 0 -11 139 -59 176 -60 23 0
101 99 91 117 -5 8 -46 27 -93 43 -46 17 -84 30 -84 29 0 0 -20 -26 -45 -58z"/>
<path d="M10841 3651 c-12 -16 -21 -35 -21 -43 0 -8 36 -24 97 -41 l96 -28 23
28 c14 18 19 33 14 42 -6 12 -159 71 -182 71 -4 0 -16 -13 -27 -29z"/>
<path d="M10692 3546 c-23 -30 -42 -61 -42 -68 0 -12 148 -68 178 -68 14 0 92
104 92 122 0 11 -26 24 -84 42 -46 14 -88 26 -93 26 -4 0 -27 -24 -51 -54z"/>
<path d="M15375 3526 c-38 -24 -272 -161 -520 -306 -247 -144 -477 -279 -510
-300 -104 -66 -838 -493 -855 -497 -8 -2 -249 130 -535 293 -286 163 -527 299
-536 301 -9 3 -526 -294 -1160 -665 -629 -368 -1170 -684 -1203 -701 -32 -18
-453 -263 -935 -545 -482 -282 -1094 -640 -1361 -796 -267 -156 -494 -289
-505 -297 -16 -11 714 -13 4563 -13 l4582 0 0 1518 0 1519 -465 266 c-256 147
-470 267 -477 266 -7 0 -44 -20 -83 -43z"/>
<path d="M11311 3494 c-12 -15 -21 -32 -21 -38 0 -7 43 -25 96 -40 l95 -29 25
25 c37 36 23 53 -64 82 -96 32 -106 32 -131 0z"/>
<path d="M11565 3433 c-39 -38 -41 -73 -6 -73 10 0 24 -6 31 -14 6 -8 17 -13
24 -10 6 2 31 -2 55 -11 38 -13 45 -13 66 1 24 15 42 50 32 60 -3 3 -46 18
-96 34 -81 25 -93 26 -106 13z"/>
<path d="M3415 2026 c-545 -82 -999 -418 -1224 -908 -94 -204 -131 -366 -138
-599 -6 -187 2 -279 38 -430 l21 -89 65 0 c55 0 64 2 59 16 -38 100 -66 287
-66 449 0 696 510 1305 1200 1431 129 24 391 24 518 0 187 -34 376 -111 540
-219 102 -67 265 -205 276 -233 5 -14 12 -12 54 11 71 41 71 40 17 96 -231
236 -550 408 -862 465 -120 21 -384 27 -498 10z"/>
<path d="M3475 1894 c-403 -61 -683 -208 -933 -488 -306 -343 -426 -830 -316
-1287 l26 -109 50 27 c56 31 54 22 23 158 -42 186 -27 458 36 661 141 449 531
805 987 899 292 61 587 27 848 -96 112 -53 245 -143 332 -224 l73 -68 42 23
c23 13 46 26 50 30 12 10 -160 168 -245 226 -158 106 -344 185 -530 225 -91
20 -370 34 -443 23z"/>
<path d="M3423 1754 c-114 -16 -272 -68 -389 -127 -363 -184 -628 -542 -700
-946 -28 -161 -15 -442 27 -568 l11 -33 59 32 c39 22 57 37 54 47 -17 44 -35
200 -35 301 0 324 120 609 352 837 321 314 768 419 1198 282 142 -45 325 -153
427 -251 l41 -40 56 33 c31 19 55 38 53 44 -8 23 -179 160 -263 211 -274 164
-575 225 -891 178z"/>
<path d="M3519 1620 c-106 -10 -256 -49 -361 -95 -184 -79 -396 -259 -504
-425 -139 -215 -206 -463 -190 -709 6 -98 26 -214 39 -227 8 -8 122 61 120 72
-1 5 -7 56 -13 114 -42 361 111 708 415 935 104 78 215 130 365 172 52 14 102
18 245 17 167 0 187 -2 270 -28 122 -36 243 -98 343 -174 l82 -62 55 31 c30
17 57 34 60 39 6 10 -64 74 -145 132 -220 157 -505 232 -781 208z"/>
<path d="M3450 1455 c-438 -80 -775 -438 -829 -881 -13 -108 4 -334 26 -334 2
0 32 16 66 36 l62 35 -1 132 -2 132 8 -125 c4 -69 8 -126 9 -127 0 -1 30 15
66 35 l65 37 0 81 c0 177 73 347 205 479 44 44 96 89 115 99 43 23 31 11 -37
-38 -160 -114 -273 -337 -273 -537 l0 -79 73 43 c66 39 72 46 78 82 6 38 6 38
8 8 0 -18 4 -33 7 -33 3 0 178 100 390 223 l385 222 -31 13 c-281 114 -600
-18 -716 -296 -13 -31 -23 -51 -24 -43 0 7 13 41 30 75 91 191 289 316 496
316 75 0 178 -21 225 -45 29 -15 31 -15 169 66 77 44 140 84 140 88 0 14 -128
90 -210 126 -47 20 -71 33 -55 30 48 -10 152 -61 220 -109 l63 -44 61 35 c33
18 63 38 66 43 8 14 -98 94 -190 144 -204 112 -442 151 -665 111z"/>
</g>
</svg>
